<?xml version="1.0" encoding="UTF-8" standalone="no"?><!DOCTYPE svg PUBLIC "-//W3C//DTD SVG 1.1//EN" "http://www.w3.org/Graphics/SVG/1.1/DTD/svg11.dtd"><svg width="100%" height="100%" viewBox="0 0 212 169" version="1.1" xmlns="http://www.w3.org/2000/svg" xmlns:xlink="http://www.w3.org/1999/xlink" xml:space="preserve" xmlns:serif="http://www.serif.com/" style="fill-rule:evenodd;clip-rule:evenodd;stroke-linejoin:round;stroke-miterlimit:2;"><g><path d="M19.358,52.368c6.946,-3.338 5.153,-5.683 7.444,-9.184c3.809,-5.818 6.721,-10.653 18.951,-9.476c6.057,0.584 8.189,3.118 10.081,2.715c15.127,-3.233 18.743,3.54 19.837,7.395c0.438,1.546 2.203,4.154 5.058,5.017c8.828,2.665 9.155,8.398 11.437,9.728c3.625,2.116 4.163,4.646 5.121,7.251c1.938,5.269 -1.572,7.16 -0.677,9.905c4.507,13.852 -3.954,18.319 -5.699,20.581c-3.618,4.703 1.606,5.152 -4.139,12.046c-1.106,1.325 -4.043,4.173 -9.47,6.493c-3.182,1.36 -10.836,4.176 -14.906,4.535c-9.97,0.875 -7.894,-0.883 -15.199,-1.085c-2.52,-0.068 -3.639,1.456 -11.638,1.282c-2.887,-0.061 -5.73,-1.025 -9.456,-2.472c-6.002,-2.331 -5.725,-6.427 -9.031,-9.058c-3.831,-3.047 -6.12,-4.332 -5.268,-17.465c0.436,-6.727 -4.424,-5.797 -6.816,-11.473c-2.22,-5.261 -4.013,-17.604 10.258,-24.189c1.904,-0.879 2.37,-1.708 4.112,-2.546" style="fill:#8383a8;"/><g><clipPath id="_clip1"><path d="M26.802,43.184c-2.291,3.501 -0.498,5.846 -7.444,9.184c-1.742,0.838 -2.208,1.667 -4.112,2.546c-14.271,6.585 -12.478,18.928 -10.258,24.189c2.392,5.676 7.252,4.746 6.816,11.473c-0.852,13.133 1.437,14.418 5.268,17.465c3.306,2.631 3.029,6.727 9.031,9.058c3.726,1.447 6.569,2.411 9.456,2.472c4.125,0.092 6.421,-0.27 8.022,-0.634c1.503,-0.339 2.396,-0.68 3.616,-0.648c7.305,0.202 5.229,1.96 15.199,1.085c4.07,-0.359 11.724,-3.175 14.906,-4.535c5.427,-2.32 8.364,-5.168 9.47,-6.493c5.745,-6.894 0.521,-7.343 4.139,-12.046c1.745,-2.262 10.206,-6.729 5.699,-20.581c-0.895,-2.745 2.615,-4.636 0.677,-9.905c-0.958,-2.605 -1.496,-5.135 -5.121,-7.251c-2.282,-1.33 -2.609,-7.063 -11.437,-9.728c-2.855,-0.863 -4.62,-3.471 -5.058,-5.017c-1.094,-3.855 -4.71,-10.628 -19.837,-7.395c-1.892,0.403 -4.024,-2.131 -10.081,-2.715c-1.251,-0.119 -2.405,-0.177 -3.471,-0.177c-9.363,0 -12.06,4.431 -15.48,9.653Z" clip-rule="nonzero"/></clipPath><g clip-path="url(#_clip1)"><path d="M7.36,84.607c3.052,3.943 7.273,1.553 10,1.768c7.728,0.607 7.225,9.009 9.869,10.477c2.644,1.465 7.619,3.814 11.034,2.683c3.415,-1.131 7.031,-6.578 10.346,-7.633c6.043,-1.923 7.647,-0.254 12.075,-0.708c13.083,-1.339 9.961,-9.982 15.492,-12.418c8.858,-3.902 10.462,-16.65 4.966,-23.381c-4.232,-5.184 -0.3,-8.964 -0.3,-8.964c-0,-0 -0.436,-3.196 -2.645,-8.497c-2.208,-5.298 -7.983,-12.338 -21.802,-11.931c-13.817,0.408 -25.334,-6.191 -38.751,8.82c-13.418,15.012 -17.857,18.316 -17.989,30.788c-0.134,12.473 5.815,16.556 7.705,18.996" style="fill:#a6dcdf;"/><path d="M15.688,90.814c4.453,0.623 9.233,4.545 8.021,7.579c-0.678,1.699 -3.172,-1.342 -6.51,-0.747c-2.854,0.511 -3.563,0.119 -4.478,0.163c-3.725,0.179 -2.773,-2.667 -2.076,-4.426c1.709,-4.3 3.083,-2.843 5.043,-2.569" style="fill:#a6dcdf;"/><path d="M86.107,59.919c-1.442,3.917 0.515,9.234 3.081,8.512c7.702,-2.163 2.445,-4.377 0.916,-7.427c-1.53,-3.047 -3.288,-3.011 -3.997,-1.085" style="fill:#a6dcdf;"/><path d="M46.323,97.901c6.987,-5.596 13.911,-5.319 12.884,-0.362c-0.835,4.034 -1.172,4.728 -8.671,5.069c-4.843,0.22 -6.751,-2.672 -4.213,-4.707" style="fill:#a6dcdf;"/><path d="M64.657,102.07c-0.21,-1.168 1.341,-0.032 5.566,-1.992c5.263,-2.443 9.46,-8.639 7.695,-4.307c-3.671,9.01 -12.829,8.685 -13.261,6.299" style="fill:#a6dcdf;"/><path d="M85.408,81.278c-1.207,2.393 -1.945,7.792 -0.233,6.029c1.712,-1.761 3.226,-3.355 2.58,-5.214c-0.646,-1.859 -0.42,-4.634 -2.347,-0.815" style="fill:#a6dcdf;"/><path d="M73.195,89.319c-3.316,2.354 2.226,-6.646 3.952,-8.167c1.726,-1.522 4.142,-1.742 3.415,1.779c-0.726,3.524 -4.421,4.3 -7.367,6.388" style="fill:#a6dcdf;"/><path d="M76.661,107.283c0.403,-2.102 2.944,-2.527 5.131,-2.688c2.185,-0.16 4.156,0.845 2.631,2.404c-3.085,3.148 -8.676,5.053 -7.762,0.284" style="fill:#a6dcdf;"/><path d="M55.215,109.092c-4.949,3.35 1.424,6.942 4.798,5.296c3.373,-1.646 1.405,-4.369 3.239,-5.166c3.138,-1.362 6.267,-1.712 4.947,-2.557c-1.707,-1.092 -3.039,-0.483 -6.08,0.034c-3.094,0.529 -4.34,0.657 -6.904,2.393" style="fill:#a6dcdf;"/><path d="M58.037,53.487c1.567,-4.572 2.954,-7.539 7.707,-7.846c5.543,-0.357 -1.774,0.955 -4.035,3.945c-2.631,3.485 -4.329,5.825 -3.672,3.901" style="fill:#88c8cc;"/><path d="M20.791,50.41c0.466,2.4 7.548,0.948 11.666,7.528c1.463,2.336 2.486,3.597 1.034,-1.529c-1.479,-5.218 -3.881,-4.327 -7.367,-5.385c-3.485,-1.058 -5.612,-2.061 -5.333,-0.614" style="fill:#88c8cc;"/><path d="M32.619,75.11c1.583,-3.269 3.696,-4.263 6.198,-4.65c2.499,-0.389 2.891,-1.994 5.028,-2.635c3.834,-1.15 3.283,1.971 0.597,3.203c-2.686,1.232 -4.176,-0.099 -6.83,1.751c-2.653,1.848 -6.627,5.708 -4.993,2.331" style="fill:#88c8cc;"/><path d="M61.33,82.357c1.064,2.543 19.094,-2.246 19.609,-6.162c0.182,-1.383 -4.216,3.293 -10.76,2.514c-6.544,-0.778 -9.61,1.827 -8.849,3.648" style="fill:#a6dcdf;"/><path d="M46.265,42.046c-0,0 2.684,-1.541 6.622,-2.491c3.939,-0.95 7.001,-2.738 7.25,-4.35c0.247,-1.61 -1.885,0.105 -4.645,-1.761c-2.759,-1.866 -0.6,0.145 -3.442,2.196c-2.975,2.143 -3.907,0.208 -6.106,1.878c-1.703,1.295 -0.713,3.706 0.321,4.528" style="fill:#a2dbf3;"/></g></g><g><clipPath id="_clip2"><path d="M26.802,43.184c-2.291,3.501 -0.498,5.846 -7.444,9.184c-1.742,0.838 -2.208,1.667 -4.112,2.546c-14.271,6.585 -12.478,18.928 -10.258,24.189c2.392,5.676 7.252,4.746 6.816,11.473c-0.852,13.133 1.437,14.418 5.268,17.465c3.306,2.631 3.029,6.727 9.031,9.058c3.726,1.447 6.569,2.411 9.456,2.472c4.125,0.092 6.421,-0.27 8.022,-0.634c1.503,-0.339 2.396,-0.68 3.616,-0.648c7.305,0.202 5.229,1.96 15.199,1.085c4.07,-0.359 11.724,-3.175 14.906,-4.535c5.427,-2.32 8.364,-5.168 9.47,-6.493c5.745,-6.894 0.521,-7.343 4.139,-12.046c1.745,-2.262 10.206,-6.729 5.699,-20.581c-0.895,-2.745 2.615,-4.636 0.677,-9.905c-0.958,-2.605 -1.496,-5.135 -5.121,-7.251c-2.282,-1.33 -2.609,-7.063 -11.437,-9.728c-2.855,-0.863 -4.62,-3.471 -5.058,-5.017c-1.094,-3.855 -4.71,-10.628 -19.837,-7.395c-1.892,0.403 -4.024,-2.131 -10.081,-2.715c-1.251,-0.119 -2.405,-0.177 -3.471,-0.177c-9.363,0 -12.06,4.431 -15.48,9.653Z" clip-rule="nonzero"/></clipPath><g clip-path="url(#_clip2)"><path d="M7.36,84.607c3.052,3.943 7.273,1.553 10,1.768c7.728,0.607 7.225,9.009 9.869,10.477c2.644,1.465 7.619,3.814 11.034,2.683c3.415,-1.131 7.031,-6.578 10.346,-7.633c6.043,-1.923 7.647,-0.254 12.075,-0.708c13.083,-1.339 9.961,-9.982 15.492,-12.418c8.858,-3.902 10.462,-16.65 4.966,-23.381c-4.232,-5.184 -0.3,-8.964 -0.3,-8.964c-0,-0 -0.436,-3.196 -2.645,-8.497c-2.208,-5.298 -7.983,-12.338 -21.802,-11.931c-13.817,0.408 -25.334,-6.191 -38.751,8.82c-13.418,15.012 -17.857,18.316 -17.989,30.788c-0.134,12.473 5.815,16.556 7.705,18.996" style="fill:#bdbddf;"/><path d="M15.688,90.814c4.453,0.623 9.233,4.545 8.021,7.579c-0.678,1.699 -3.172,-1.342 -6.51,-0.747c-2.854,0.511 -3.563,0.119 -4.478,0.163c-3.725,0.179 -2.773,-2.667 -2.076,-4.426c1.709,-4.3 3.083,-2.843 5.043,-2.569" style="fill:#bdbddf;"/><path d="M86.107,59.919c-1.442,3.917 0.515,9.234 3.081,8.512c7.702,-2.163 2.445,-4.377 0.916,-7.427c-1.53,-3.047 -3.288,-3.011 -3.997,-1.085" style="fill:#bdbddf;"/><path d="M46.323,97.901c6.987,-5.596 13.911,-5.319 12.884,-0.362c-0.835,4.034 -1.172,4.728 -8.671,5.069c-4.843,0.22 -6.751,-2.672 -4.213,-4.707" style="fill:#bdbddf;"/><path d="M64.657,102.07c-0.21,-1.168 1.341,-0.032 5.566,-1.992c5.263,-2.443 9.46,-8.639 7.695,-4.307c-3.671,9.01 -12.829,8.685 -13.261,6.299" style="fill:#bdbddf;"/><path d="M85.408,81.278c-1.207,2.393 -1.945,7.792 -0.233,6.029c1.712,-1.761 3.226,-3.355 2.58,-5.214c-0.646,-1.859 -0.42,-4.634 -2.347,-0.815" style="fill:#bdbddf;"/><path d="M73.195,89.319c-3.316,2.354 2.226,-6.646 3.952,-8.167c1.726,-1.522 4.142,-1.742 3.415,1.779c-0.726,3.524 -4.421,4.3 -7.367,6.388" style="fill:#bdbddf;"/><path d="M76.661,107.283c0.403,-2.102 2.944,-2.527 5.131,-2.688c2.185,-0.16 4.156,0.845 2.631,2.404c-3.085,3.148 -8.676,5.053 -7.762,0.284" style="fill:#bdbddf;"/><path d="M55.215,109.092c-4.949,3.35 1.424,6.942 4.798,5.296c3.373,-1.646 1.405,-4.369 3.239,-5.166c3.138,-1.362 6.267,-1.712 4.947,-2.557c-1.707,-1.092 -3.039,-0.483 -6.08,0.034c-3.094,0.529 -4.34,0.657 -6.904,2.393" style="fill:#bdbddf;"/><path d="M58.037,53.487c1.567,-4.572 2.954,-7.539 7.707,-7.846c5.543,-0.357 -1.774,0.955 -4.035,3.945c-2.631,3.485 -4.329,5.825 -3.672,3.901" style="fill:#bdbddf;"/><path d="M20.791,50.41c0.466,2.4 7.548,0.948 11.666,7.528c1.463,2.336 2.486,3.597 1.034,-1.529c-1.479,-5.218 -3.881,-4.327 -7.367,-5.385c-3.485,-1.058 -5.612,-2.061 -5.333,-0.614" style="fill:#bdbddf;"/><path d="M32.619,75.11c1.583,-3.269 3.696,-4.263 6.198,-4.65c2.499,-0.389 2.891,-1.994 5.028,-2.635c3.834,-1.15 3.283,1.971 0.597,3.203c-2.686,1.232 -4.176,-0.099 -6.83,1.751c-2.653,1.848 -6.627,5.708 -4.993,2.331" style="fill:#bdbddf;"/><path d="M61.33,82.357c1.064,2.543 19.094,-2.246 19.609,-6.162c0.182,-1.383 -4.216,3.293 -10.76,2.514c-6.544,-0.778 -9.61,1.827 -8.849,3.648" style="fill:#bdbddf;"/><path d="M46.265,42.046c-0,0 2.684,-1.541 6.622,-2.491c3.939,-0.95 7.001,-2.738 7.25,-4.35c0.247,-1.61 -1.885,0.105 -4.645,-1.761c-2.759,-1.866 -0.6,0.145 -3.442,2.196c-2.975,2.143 -3.907,0.208 -6.106,1.878c-1.703,1.295 -0.713,3.706 0.321,4.528" style="fill:#bdbddf;"/></g></g><g><g opacity="0"><path d="M19.358,52.368c6.946,-3.338 5.153,-5.683 7.444,-9.184c3.809,-5.818 6.721,-10.653 18.951,-9.476c6.057,0.584 8.189,3.118 10.081,2.715c15.127,-3.233 18.743,3.54 19.837,7.395c0.438,1.546 2.203,4.154 5.058,5.017c8.828,2.665 9.155,8.398 11.437,9.728c3.625,2.116 4.163,4.646 5.121,7.251c1.938,5.269 -1.572,7.16 -0.677,9.905c4.507,13.852 -3.954,18.319 -5.699,20.581c-3.618,4.703 1.606,5.152 -4.139,12.046c-1.106,1.325 -4.043,4.173 -9.47,6.493c-3.182,1.36 -10.836,4.176 -14.906,4.535c-9.97,0.875 -7.894,-0.883 -15.199,-1.085c-2.52,-0.068 -3.639,1.456 -11.638,1.282c-2.887,-0.061 -5.73,-1.025 -9.456,-2.472c-6.002,-2.331 -5.725,-6.427 -9.031,-9.058c-3.831,-3.047 -6.12,-4.332 -5.268,-17.465c0.436,-6.727 -4.424,-5.797 -6.816,-11.473c-2.22,-5.261 -4.013,-17.604 10.258,-24.189c1.904,-0.879 2.37,-1.708 4.112,-2.546" style="fill:#efa074;stroke:#000;stroke-width:2.08px;"/></g><path d="M19.358,52.368c6.946,-3.338 5.153,-5.683 7.444,-9.184c3.809,-5.818 6.721,-10.653 18.951,-9.476c6.057,0.584 8.189,3.118 10.081,2.715c15.127,-3.233 18.743,3.54 19.837,7.395c0.438,1.546 2.203,4.154 5.058,5.017c8.828,2.665 9.155,8.398 11.437,9.728c3.625,2.116 4.163,4.646 5.121,7.251c1.938,5.269 -1.572,7.16 -0.677,9.905c4.507,13.852 -3.954,18.319 -5.699,20.581c-3.618,4.703 1.606,5.152 -4.139,12.046c-1.106,1.325 -4.043,4.173 -9.47,6.493c-3.182,1.36 -10.836,4.176 -14.906,4.535c-9.97,0.875 -7.894,-0.883 -15.199,-1.085c-2.52,-0.068 -3.639,1.456 -11.638,1.282c-2.887,-0.061 -5.73,-1.025 -9.456,-2.472c-6.002,-2.331 -5.725,-6.427 -9.031,-9.058c-3.831,-3.047 -6.12,-4.332 -5.268,-17.465c0.436,-6.727 -4.424,-5.797 -6.816,-11.473c-2.22,-5.261 -4.013,-17.604 10.258,-24.189c1.904,-0.879 2.37,-1.708 4.112,-2.546Z" style="fill:none;fill-rule:nonzero;stroke:#000;stroke-width:2.08px;stroke-linecap:round;stroke-miterlimit:10;"/></g></g><g><path d="M41.121,50.322c7.696,-3.699 5.709,-6.297 8.248,-10.176c4.221,-6.447 7.448,-11.805 20.999,-10.501c6.711,0.647 9.074,3.455 11.17,3.009c16.763,-3.583 20.769,3.922 21.981,8.194c0.486,1.713 2.442,4.602 5.605,5.559c9.782,2.953 10.145,9.306 12.674,10.78c4.016,2.344 4.612,5.147 5.673,8.035c2.148,5.837 -1.741,7.933 -0.749,10.975c4.994,15.349 -4.382,20.299 -6.315,22.805c-4.009,5.211 1.779,5.708 -4.587,13.347c-1.225,1.469 -4.48,4.625 -10.493,7.195c-3.526,1.507 -12.007,4.628 -16.517,5.026c-11.048,0.969 -8.747,-0.979 -16.842,-1.202c-2.792,-0.076 -4.032,1.613 -12.896,1.421c-3.199,-0.069 -6.349,-1.137 -10.478,-2.74c-6.65,-2.583 -6.343,-7.122 -10.007,-10.037c-4.245,-3.377 -6.781,-4.8 -5.837,-19.352c0.483,-7.454 -4.902,-6.424 -7.553,-12.713c-2.46,-5.831 -4.446,-19.508 11.367,-26.804c2.11,-0.974 2.626,-1.893 4.557,-2.821" style="fill:#8bb675;"/><g><clipPath id="_clip3"><path d="M49.369,40.146c-2.539,3.879 -0.552,6.477 -8.248,10.176c-1.931,0.928 -2.447,1.847 -4.557,2.821c-15.813,7.296 -13.827,20.973 -11.367,26.804c2.651,6.289 8.036,5.259 7.553,12.713c-0.944,14.552 1.592,15.975 5.837,19.352c3.664,2.915 3.357,7.454 10.007,10.037c4.129,1.603 7.279,2.671 10.478,2.74c4.571,0.101 7.115,-0.3 8.89,-0.703c1.664,-0.376 2.654,-0.754 4.006,-0.718c8.095,0.223 5.794,2.171 16.842,1.202c4.51,-0.398 12.991,-3.519 16.517,-5.026c6.013,-2.57 9.268,-5.726 10.493,-7.195c6.366,-7.639 0.578,-8.136 4.587,-13.347c1.933,-2.506 11.309,-7.456 6.315,-22.805c-0.992,-3.042 2.897,-5.138 0.749,-10.975c-1.061,-2.888 -1.657,-5.691 -5.673,-8.035c-2.529,-1.474 -2.892,-7.827 -12.674,-10.78c-3.163,-0.957 -5.119,-3.846 -5.605,-5.559c-1.212,-4.272 -5.218,-11.777 -21.981,-8.194c-2.096,0.446 -4.459,-2.362 -11.17,-3.009c-1.386,-0.132 -2.664,-0.196 -3.846,-0.196c-10.375,0 -13.364,4.91 -17.153,10.697Z" clip-rule="nonzero"/></clipPath><g clip-path="url(#_clip3)"><path d="M27.825,86.046c3.383,4.368 8.059,1.72 11.081,1.958c8.563,0.672 8.006,9.983 10.936,11.61c2.93,1.623 8.442,4.226 12.226,2.973c3.784,-1.253 7.791,-7.289 11.465,-8.458c6.696,-2.132 8.473,-0.282 13.38,-0.784c14.497,-1.485 11.038,-11.062 17.166,-13.761c9.816,-4.323 11.593,-18.45 5.502,-25.908c-4.689,-5.744 -0.332,-9.933 -0.332,-9.933c-0,0 -0.483,-3.542 -2.93,-9.415c-2.447,-5.871 -8.847,-13.672 -24.159,-13.22c-15.31,0.451 -28.071,-6.86 -42.939,9.772c-14.868,16.636 -19.787,20.297 -19.933,34.116c-0.148,13.822 6.443,18.345 8.537,21.05" style="fill:#a6dcdf;"/><path d="M37.054,92.923c4.934,0.69 10.23,5.036 8.887,8.398c-0.75,1.882 -3.514,-1.487 -7.213,-0.827c-3.162,0.566 -3.948,0.132 -4.962,0.18c-4.128,0.198 -3.073,-2.956 -2.3,-4.904c1.893,-4.765 3.416,-3.151 5.588,-2.847" style="fill:#a6dcdf;"/><path d="M115.084,58.689c-1.598,4.341 0.57,10.232 3.413,9.432c8.535,-2.397 2.71,-4.85 1.015,-8.23c-1.695,-3.377 -3.643,-3.336 -4.428,-1.202" style="fill:#a6dcdf;"/><path d="M70.999,100.776c7.742,-6.201 15.415,-5.894 14.277,-0.401c-0.925,4.47 -1.298,5.239 -9.608,5.617c-5.367,0.243 -7.481,-2.961 -4.669,-5.216" style="fill:#a6dcdf;"/><path d="M91.316,105.395c-0.233,-1.293 1.485,-0.035 6.167,-2.207c5.832,-2.707 10.482,-9.572 8.527,-4.772c-4.068,9.983 -14.216,9.623 -14.694,6.979" style="fill:#a6dcdf;"/><path d="M114.309,82.357c-1.337,2.651 -2.155,8.633 -0.258,6.68c1.897,-1.951 3.574,-3.717 2.858,-5.777c-0.716,-2.06 -0.465,-5.135 -2.6,-0.903" style="fill:#a6dcdf;"/><path d="M100.776,91.267c-3.674,2.608 2.467,-7.365 4.38,-9.05c1.912,-1.687 4.589,-1.931 3.784,1.971c-0.806,3.905 -4.899,4.765 -8.164,7.079" style="fill:#a6dcdf;"/><path d="M104.616,111.172c0.448,-2.329 3.263,-2.801 5.686,-2.978c2.422,-0.178 4.605,0.936 2.915,2.664c-3.418,3.488 -9.613,5.599 -8.601,0.314" style="fill:#a6dcdf;"/><path d="M80.853,113.177c-5.484,3.711 1.578,7.692 5.316,5.868c3.738,-1.824 1.557,-4.841 3.59,-5.724c3.477,-1.509 6.944,-1.898 5.481,-2.834c-1.892,-1.21 -3.367,-0.535 -6.737,0.038c-3.429,0.586 -4.809,0.728 -7.65,2.652" style="fill:#a6dcdf;"/><path d="M83.98,51.562c1.736,-5.066 3.273,-8.354 8.54,-8.694c6.141,-0.396 -1.966,1.058 -4.472,4.371c-2.915,3.861 -4.797,6.454 -4.068,4.323" style="fill:#88c8cc;"/><path d="M42.708,48.152c0.517,2.659 8.364,1.051 12.927,8.342c1.621,2.588 2.754,3.986 1.146,-1.695c-1.639,-5.781 -4.301,-4.795 -8.164,-5.967c-3.861,-1.172 -6.218,-2.283 -5.909,-0.68" style="fill:#88c8cc;"/><path d="M55.814,75.522c1.754,-3.623 4.096,-4.724 6.868,-5.153c2.769,-0.431 3.204,-2.21 5.571,-2.92c4.25,-1.274 3.639,2.184 0.662,3.549c-2.976,1.365 -4.627,-0.109 -7.568,1.941c-2.94,2.048 -7.343,6.325 -5.533,2.583" style="fill:#88c8cc;"/><path d="M87.629,83.552c1.178,2.818 21.157,-2.489 21.727,-6.828c0.202,-1.532 -4.671,3.649 -11.922,2.786c-7.251,-0.862 -10.649,2.025 -9.805,4.042" style="fill:#a6dcdf;"/><path d="M70.935,38.885c0,-0 2.974,-1.708 7.338,-2.761c4.365,-1.053 7.758,-3.034 8.034,-4.82c0.273,-1.784 -2.089,0.117 -5.147,-1.951c-3.058,-2.068 -0.665,0.16 -3.815,2.433c-3.295,2.375 -4.328,0.231 -6.765,2.08c-1.887,1.436 -0.79,4.108 0.355,5.019" style="fill:#a2dbf3;"/></g></g><g><clipPath id="_clip4"><path d="M49.369,40.146c-2.539,3.879 -0.552,6.477 -8.248,10.176c-1.931,0.928 -2.447,1.847 -4.557,2.821c-15.813,7.296 -13.827,20.973 -11.367,26.804c2.651,6.289 8.036,5.259 7.553,12.713c-0.944,14.552 1.592,15.975 5.837,19.352c3.664,2.915 3.357,7.454 10.007,10.037c4.129,1.603 7.279,2.671 10.478,2.74c4.571,0.101 7.115,-0.3 8.89,-0.703c1.664,-0.376 2.654,-0.754 4.006,-0.718c8.095,0.223 5.794,2.171 16.842,1.202c4.51,-0.398 12.991,-3.519 16.517,-5.026c6.013,-2.57 9.268,-5.726 10.493,-7.195c6.366,-7.639 0.578,-8.136 4.587,-13.347c1.933,-2.506 11.309,-7.456 6.315,-22.805c-0.992,-3.042 2.897,-5.138 0.749,-10.975c-1.061,-2.888 -1.657,-5.691 -5.673,-8.035c-2.529,-1.474 -2.892,-7.827 -12.674,-10.78c-3.163,-0.957 -5.119,-3.846 -5.605,-5.559c-1.212,-4.272 -5.218,-11.777 -21.981,-8.194c-2.096,0.446 -4.459,-2.362 -11.17,-3.009c-1.386,-0.132 -2.664,-0.196 -3.846,-0.196c-10.375,0 -13.364,4.91 -17.153,10.697Z" clip-rule="nonzero"/></clipPath><g clip-path="url(#_clip4)"><path d="M27.825,86.046c3.383,4.368 8.059,1.72 11.081,1.958c8.563,0.672 8.006,9.983 10.936,11.61c2.93,1.623 8.442,4.226 12.226,2.973c3.784,-1.253 7.791,-7.289 11.465,-8.458c6.696,-2.132 8.473,-0.282 13.38,-0.784c14.497,-1.485 11.038,-11.062 17.166,-13.761c9.816,-4.323 11.593,-18.45 5.502,-25.908c-4.689,-5.744 -0.332,-9.933 -0.332,-9.933c-0,0 -0.483,-3.542 -2.93,-9.415c-2.447,-5.871 -8.847,-13.672 -24.159,-13.22c-15.31,0.451 -28.071,-6.86 -42.939,9.772c-14.868,16.636 -19.787,20.297 -19.933,34.116c-0.148,13.822 6.443,18.345 8.537,21.05" style="fill:#a1e081;"/><path d="M37.054,92.923c4.934,0.69 10.23,5.036 8.887,8.398c-0.75,1.882 -3.514,-1.487 -7.213,-0.827c-3.162,0.566 -3.948,0.132 -4.962,0.18c-4.128,0.198 -3.073,-2.956 -2.3,-4.904c1.893,-4.765 3.416,-3.151 5.588,-2.847" style="fill:#a1e081;"/><path d="M115.084,58.689c-1.598,4.341 0.57,10.232 3.413,9.432c8.535,-2.397 2.71,-4.85 1.015,-8.23c-1.695,-3.377 -3.643,-3.336 -4.428,-1.202" style="fill:#a1e081;"/><path d="M70.999,100.776c7.742,-6.201 15.415,-5.894 14.277,-0.401c-0.925,4.47 -1.298,5.239 -9.608,5.617c-5.367,0.243 -7.481,-2.961 -4.669,-5.216" style="fill:#a1e081;"/><path d="M91.316,105.395c-0.233,-1.293 1.485,-0.035 6.167,-2.207c5.832,-2.707 10.482,-9.572 8.527,-4.772c-4.068,9.983 -14.216,9.623 -14.694,6.979" style="fill:#a1e081;"/><path d="M114.309,82.357c-1.337,2.651 -2.155,8.633 -0.258,6.68c1.897,-1.951 3.574,-3.717 2.858,-5.777c-0.716,-2.06 -0.465,-5.135 -2.6,-0.903" style="fill:#a1e081;"/><path d="M100.776,91.267c-3.674,2.608 2.467,-7.365 4.38,-9.05c1.912,-1.687 4.589,-1.931 3.784,1.971c-0.806,3.905 -4.899,4.765 -8.164,7.079" style="fill:#a1e081;"/><path d="M104.616,111.172c0.448,-2.329 3.263,-2.801 5.686,-2.978c2.422,-0.178 4.605,0.936 2.915,2.664c-3.418,3.488 -9.613,5.599 -8.601,0.314" style="fill:#a1e081;"/><path d="M80.853,113.177c-5.484,3.711 1.578,7.692 5.316,5.868c3.738,-1.824 1.557,-4.841 3.59,-5.724c3.477,-1.509 6.944,-1.898 5.481,-2.834c-1.892,-1.21 -3.367,-0.535 -6.737,0.038c-3.429,0.586 -4.809,0.728 -7.65,2.652" style="fill:#a1e081;"/><path d="M83.98,51.562c1.736,-5.066 3.273,-8.354 8.54,-8.694c6.141,-0.396 -1.966,1.058 -4.472,4.371c-2.915,3.861 -4.797,6.454 -4.068,4.323" style="fill:#a1e081;"/><path d="M42.708,48.152c0.517,2.659 8.364,1.051 12.927,8.342c1.621,2.588 2.754,3.986 1.146,-1.695c-1.639,-5.781 -4.301,-4.795 -8.164,-5.967c-3.861,-1.172 -6.218,-2.283 -5.909,-0.68" style="fill:#a1e081;"/><path d="M55.814,75.522c1.754,-3.623 4.096,-4.724 6.868,-5.153c2.769,-0.431 3.204,-2.21 5.571,-2.92c4.25,-1.274 3.639,2.184 0.662,3.549c-2.976,1.365 -4.627,-0.109 -7.568,1.941c-2.94,2.048 -7.343,6.325 -5.533,2.583" style="fill:#a1e081;"/><path d="M87.629,83.552c1.178,2.818 21.157,-2.489 21.727,-6.828c0.202,-1.532 -4.671,3.649 -11.922,2.786c-7.251,-0.862 -10.649,2.025 -9.805,4.042" style="fill:#a1e081;"/><path d="M70.935,38.885c0,-0 2.974,-1.708 7.338,-2.761c4.365,-1.053 7.758,-3.034 8.034,-4.82c0.273,-1.784 -2.089,0.117 -5.147,-1.951c-3.058,-2.068 -0.665,0.16 -3.815,2.433c-3.295,2.375 -4.328,0.231 -6.765,2.08c-1.887,1.436 -0.79,4.108 0.355,5.019" style="fill:#a1e081;"/></g></g><g><g opacity="0"><path d="M41.121,50.322c7.696,-3.699 5.709,-6.297 8.248,-10.176c4.221,-6.447 7.448,-11.805 20.999,-10.501c6.711,0.647 9.074,3.455 11.17,3.009c16.763,-3.583 20.769,3.922 21.981,8.194c0.486,1.713 2.442,4.602 5.605,5.559c9.782,2.953 10.145,9.306 12.674,10.78c4.016,2.344 4.612,5.147 5.673,8.035c2.148,5.837 -1.741,7.933 -0.749,10.975c4.994,15.349 -4.382,20.299 -6.315,22.805c-4.009,5.211 1.779,5.708 -4.587,13.347c-1.225,1.469 -4.48,4.625 -10.493,7.195c-3.526,1.507 -12.007,4.628 -16.517,5.026c-11.048,0.969 -8.747,-0.979 -16.842,-1.202c-2.792,-0.076 -4.032,1.613 -12.896,1.421c-3.199,-0.069 -6.349,-1.137 -10.478,-2.74c-6.65,-2.583 -6.343,-7.122 -10.007,-10.037c-4.245,-3.377 -6.781,-4.8 -5.837,-19.352c0.483,-7.454 -4.902,-6.424 -7.553,-12.713c-2.46,-5.831 -4.446,-19.508 11.367,-26.804c2.11,-0.974 2.626,-1.893 4.557,-2.821" style="fill:#efa074;stroke:#000;stroke-width:2.08px;"/></g><path d="M41.121,50.322c7.696,-3.699 5.709,-6.297 8.248,-10.176c4.221,-6.447 7.448,-11.805 20.999,-10.501c6.711,0.647 9.074,3.455 11.17,3.009c16.763,-3.583 20.769,3.922 21.981,8.194c0.486,1.713 2.442,4.602 5.605,5.559c9.782,2.953 10.145,9.306 12.674,10.78c4.016,2.344 4.612,5.147 5.673,8.035c2.148,5.837 -1.741,7.933 -0.749,10.975c4.994,15.349 -4.382,20.299 -6.315,22.805c-4.009,5.211 1.779,5.708 -4.587,13.347c-1.225,1.469 -4.48,4.625 -10.493,7.195c-3.526,1.507 -12.007,4.628 -16.517,5.026c-11.048,0.969 -8.747,-0.979 -16.842,-1.202c-2.792,-0.076 -4.032,1.613 -12.896,1.421c-3.199,-0.069 -6.349,-1.137 -10.478,-2.74c-6.65,-2.583 -6.343,-7.122 -10.007,-10.037c-4.245,-3.377 -6.781,-4.8 -5.837,-19.352c0.483,-7.454 -4.902,-6.424 -7.553,-12.713c-2.46,-5.831 -4.446,-19.508 11.367,-26.804c2.11,-0.974 2.626,-1.893 4.557,-2.821Z" style="fill:none;fill-rule:nonzero;stroke:#000;stroke-width:2.08px;stroke-linecap:round;stroke-miterlimit:10;"/></g></g><g><path d="M65.033,46.347c8.521,-4.095 6.321,-6.972 9.132,-11.267c4.674,-7.137 8.247,-13.07 23.25,-11.626c7.431,0.716 10.047,3.826 12.368,3.331c18.559,-3.966 22.995,4.343 24.337,9.073c0.538,1.896 2.704,5.096 6.205,6.155c10.831,3.269 11.233,10.303 14.033,11.935c4.447,2.596 5.107,5.7 6.282,8.896c2.378,6.464 -1.928,8.784 -0.83,12.152c5.529,16.994 -4.852,22.474 -6.992,25.25c-4.439,5.769 1.97,6.32 -5.079,14.778c-1.356,1.626 -4.959,5.12 -11.617,7.966c-3.904,1.668 -13.294,5.123 -18.288,5.564c-12.232,1.073 -9.684,-1.084 -18.647,-1.331c-3.091,-0.084 -4.464,1.786 -14.278,1.573c-3.542,-0.076 -7.029,-1.258 -11.601,-3.034c-7.363,-2.859 -7.024,-7.884 -11.08,-11.112c-4.699,-3.739 -7.508,-5.315 -6.463,-21.427c0.535,-8.253 -5.427,-7.112 -8.362,-14.076c-2.724,-6.455 -4.923,-21.598 12.586,-29.676c2.335,-1.079 2.907,-2.096 5.044,-3.124" style="fill:#749eb4;"/><g><clipPath id="_clip5"><path d="M74.165,35.08c-2.811,4.295 -0.611,7.172 -9.132,11.267c-2.137,1.028 -2.709,2.045 -5.044,3.124c-17.509,8.078 -15.31,23.221 -12.586,29.676c2.935,6.964 8.897,5.823 8.362,14.076c-1.045,16.112 1.764,17.688 6.463,21.427c4.056,3.228 3.717,8.253 11.08,11.112c4.572,1.776 8.059,2.958 11.601,3.034c5.061,0.112 7.878,-0.331 9.842,-0.778c1.843,-0.416 2.939,-0.834 4.436,-0.795c8.963,0.247 6.415,2.404 18.647,1.331c4.994,-0.441 14.384,-3.896 18.288,-5.564c6.658,-2.846 10.261,-6.34 11.617,-7.966c7.049,-8.458 0.64,-9.009 5.079,-14.778c2.14,-2.776 12.521,-8.256 6.992,-25.25c-1.098,-3.368 3.208,-5.688 0.83,-12.152c-1.175,-3.196 -1.835,-6.3 -6.282,-8.896c-2.8,-1.632 -3.202,-8.666 -14.033,-11.935c-3.501,-1.059 -5.667,-4.259 -6.205,-6.155c-1.342,-4.73 -5.778,-13.039 -24.337,-9.073c-2.321,0.495 -4.937,-2.615 -12.368,-3.331c-1.534,-0.146 -2.949,-0.216 -4.257,-0.216c-11.488,-0 -14.797,5.435 -18.993,11.842Z" clip-rule="nonzero"/></clipPath><g clip-path="url(#_clip5)"><path d="M50.313,85.9c3.745,4.837 8.923,1.905 12.269,2.169c9.48,0.744 8.863,11.053 12.107,12.854c3.244,1.797 9.348,4.679 13.537,3.292c4.19,-1.388 8.626,-8.07 12.694,-9.365c7.414,-2.36 9.381,-0.312 14.814,-0.868c16.051,-1.644 12.221,-12.248 19.006,-15.236c10.868,-4.787 12.835,-20.427 6.092,-28.685c-5.192,-6.36 -0.368,-10.998 -0.368,-10.998c0,0 -0.535,-3.921 -3.244,-10.424c-2.709,-6.5 -9.795,-15.137 -26.749,-14.637c-16.951,0.5 -31.08,-7.596 -47.541,10.82c-16.462,18.418 -21.908,22.472 -22.07,37.772c-0.164,15.303 7.134,20.312 9.453,23.306" style="fill:#a6dcdf;"/><path d="M60.53,93.515c5.463,0.764 11.328,5.576 9.84,9.298c-0.831,2.084 -3.891,-1.646 -7.986,-0.916c-3.501,0.627 -4.371,0.146 -5.494,0.2c-4.57,0.219 -3.402,-3.273 -2.546,-5.43c2.096,-5.275 3.782,-3.489 6.186,-3.152" style="fill:#a6dcdf;"/><path d="M146.924,55.611c-1.769,4.806 0.631,11.329 3.779,10.444c9.45,-2.655 3.001,-5.371 1.124,-9.112c-1.877,-3.739 -4.034,-3.694 -4.903,-1.332" style="fill:#a6dcdf;"/><path d="M98.115,102.209c8.571,-6.865 17.067,-6.525 15.807,-0.444c-1.025,4.95 -1.438,5.801 -10.638,6.219c-5.942,0.27 -8.283,-3.278 -5.169,-5.775" style="fill:#a6dcdf;"/><path d="M120.609,107.324c-0.258,-1.432 1.644,-0.039 6.828,-2.444c6.457,-2.997 11.606,-10.598 9.44,-5.283c-4.503,11.053 -15.739,10.654 -16.268,7.727" style="fill:#a6dcdf;"/><path d="M146.066,81.816c-1.48,2.935 -2.386,9.559 -0.285,7.396c2.1,-2.16 3.957,-4.115 3.164,-6.396c-0.792,-2.281 -0.515,-5.685 -2.879,-1" style="fill:#a6dcdf;"/><path d="M131.083,91.681c-4.068,2.888 2.731,-8.154 4.849,-10.02c2.117,-1.868 5.081,-2.137 4.19,2.183c-0.892,4.323 -5.424,5.275 -9.039,7.837" style="fill:#a6dcdf;"/><path d="M135.335,113.72c0.495,-2.578 3.612,-3.101 6.295,-3.297c2.681,-0.197 5.099,1.036 3.228,2.949c-3.785,3.862 -10.644,6.199 -9.523,0.348" style="fill:#a6dcdf;"/><path d="M109.025,115.939c-6.073,4.11 1.746,8.517 5.885,6.497c4.139,-2.019 1.724,-5.359 3.975,-6.337c3.85,-1.671 7.688,-2.101 6.069,-3.137c-2.095,-1.34 -3.728,-0.593 -7.459,0.042c-3.797,0.649 -5.325,0.806 -8.47,2.935" style="fill:#a6dcdf;"/><path d="M112.487,47.721c1.922,-5.61 3.623,-9.25 9.455,-9.627c6.8,-0.438 -2.177,1.172 -4.951,4.84c-3.227,4.275 -5.311,7.146 -4.504,4.787" style="fill:#88c8cc;"/><path d="M66.791,43.945c0.572,2.944 9.26,1.163 14.313,9.236c1.795,2.865 3.049,4.413 1.268,-1.876c-1.814,-6.402 -4.761,-5.309 -9.039,-6.607c-4.274,-1.298 -6.884,-2.528 -6.542,-0.753" style="fill:#88c8cc;"/><path d="M81.302,74.249c1.942,-4.012 4.535,-5.231 7.604,-5.705c3.066,-0.478 3.547,-2.447 6.168,-3.234c4.705,-1.41 4.029,2.419 0.733,3.93c-3.295,1.511 -5.123,-0.121 -8.379,2.149c-3.255,2.267 -8.13,7.003 -6.126,2.86" style="fill:#88c8cc;"/><path d="M116.526,83.139c1.305,3.121 23.426,-2.756 24.057,-7.559c0.224,-1.697 -5.172,4.039 -13.2,3.084c-8.029,-0.955 -11.791,2.242 -10.857,4.475" style="fill:#a6dcdf;"/><path d="M98.044,33.684c-0,0 3.292,-1.89 8.124,-3.056c4.833,-1.166 8.589,-3.359 8.895,-5.337c0.303,-1.975 -2.313,0.129 -5.699,-2.16c-3.385,-2.289 -0.736,0.177 -4.223,2.694c-3.649,2.629 -4.793,0.255 -7.491,2.303c-2.089,1.59 -0.874,4.548 0.394,5.556" style="fill:#a2dbf3;"/></g></g><g><clipPath id="_clip6"><path d="M74.165,35.08c-2.811,4.295 -0.611,7.172 -9.132,11.267c-2.137,1.028 -2.709,2.045 -5.044,3.124c-17.509,8.078 -15.31,23.221 -12.586,29.676c2.935,6.964 8.897,5.823 8.362,14.076c-1.045,16.112 1.764,17.688 6.463,21.427c4.056,3.228 3.717,8.253 11.08,11.112c4.572,1.776 8.059,2.958 11.601,3.034c5.061,0.112 7.878,-0.331 9.842,-0.778c1.843,-0.416 2.939,-0.834 4.436,-0.795c8.963,0.247 6.415,2.404 18.647,1.331c4.994,-0.441 14.384,-3.896 18.288,-5.564c6.658,-2.846 10.261,-6.34 11.617,-7.966c7.049,-8.458 0.64,-9.009 5.079,-14.778c2.14,-2.776 12.521,-8.256 6.992,-25.25c-1.098,-3.368 3.208,-5.688 0.83,-12.152c-1.175,-3.196 -1.835,-6.3 -6.282,-8.896c-2.8,-1.632 -3.202,-8.666 -14.033,-11.935c-3.501,-1.059 -5.667,-4.259 -6.205,-6.155c-1.342,-4.73 -5.778,-13.039 -24.337,-9.073c-2.321,0.495 -4.937,-2.615 -12.368,-3.331c-1.534,-0.146 -2.949,-0.216 -4.257,-0.216c-11.488,-0 -14.797,5.435 -18.993,11.842Z" clip-rule="nonzero"/></clipPath><g clip-path="url(#_clip6)"><path d="M50.313,85.9c3.745,4.837 8.923,1.905 12.269,2.169c9.48,0.744 8.863,11.053 12.107,12.854c3.244,1.797 9.348,4.679 13.537,3.292c4.19,-1.388 8.626,-8.07 12.694,-9.365c7.414,-2.36 9.381,-0.312 14.814,-0.868c16.051,-1.644 12.221,-12.248 19.006,-15.236c10.868,-4.787 12.835,-20.427 6.092,-28.685c-5.192,-6.36 -0.368,-10.998 -0.368,-10.998c0,0 -0.535,-3.921 -3.244,-10.424c-2.709,-6.5 -9.795,-15.137 -26.749,-14.637c-16.951,0.5 -31.08,-7.596 -47.541,10.82c-16.462,18.418 -21.908,22.472 -22.07,37.772c-0.164,15.303 7.134,20.312 9.453,23.306" style="fill:#97cae4;"/><path d="M60.53,93.515c5.463,0.764 11.328,5.576 9.84,9.298c-0.831,2.084 -3.891,-1.646 -7.986,-0.916c-3.501,0.627 -4.371,0.146 -5.494,0.2c-4.57,0.219 -3.402,-3.273 -2.546,-5.43c2.096,-5.275 3.782,-3.489 6.186,-3.152" style="fill:#97cae4;"/><path d="M146.924,55.611c-1.769,4.806 0.631,11.329 3.779,10.444c9.45,-2.655 3.001,-5.371 1.124,-9.112c-1.877,-3.739 -4.034,-3.694 -4.903,-1.332" style="fill:#97cae4;"/><path d="M98.115,102.209c8.571,-6.865 17.067,-6.525 15.807,-0.444c-1.025,4.95 -1.438,5.801 -10.638,6.219c-5.942,0.27 -8.283,-3.278 -5.169,-5.775" style="fill:#97cae4;"/><path d="M120.609,107.324c-0.258,-1.432 1.644,-0.039 6.828,-2.444c6.457,-2.997 11.606,-10.598 9.44,-5.283c-4.503,11.053 -15.739,10.654 -16.268,7.727" style="fill:#97cae4;"/><path d="M146.066,81.816c-1.48,2.935 -2.386,9.559 -0.285,7.396c2.1,-2.16 3.957,-4.115 3.164,-6.396c-0.792,-2.281 -0.515,-5.685 -2.879,-1" style="fill:#97cae4;"/><path d="M131.083,91.681c-4.068,2.888 2.731,-8.154 4.849,-10.02c2.117,-1.868 5.081,-2.137 4.19,2.183c-0.892,4.323 -5.424,5.275 -9.039,7.837" style="fill:#97cae4;"/><path d="M135.335,113.72c0.495,-2.578 3.612,-3.101 6.295,-3.297c2.681,-0.197 5.099,1.036 3.228,2.949c-3.785,3.862 -10.644,6.199 -9.523,0.348" style="fill:#97cae4;"/><path d="M109.025,115.939c-6.073,4.11 1.746,8.517 5.885,6.497c4.139,-2.019 1.724,-5.359 3.975,-6.337c3.85,-1.671 7.688,-2.101 6.069,-3.137c-2.095,-1.34 -3.728,-0.593 -7.459,0.042c-3.797,0.649 -5.325,0.806 -8.47,2.935" style="fill:#97cae4;"/><path d="M112.487,47.721c1.922,-5.61 3.623,-9.25 9.455,-9.627c6.8,-0.438 -2.177,1.172 -4.951,4.84c-3.227,4.275 -5.311,7.146 -4.504,4.787" style="fill:#97cae4;"/><path d="M66.791,43.945c0.572,2.944 9.26,1.163 14.313,9.236c1.795,2.865 3.049,4.413 1.268,-1.876c-1.814,-6.402 -4.761,-5.309 -9.039,-6.607c-4.274,-1.298 -6.884,-2.528 -6.542,-0.753" style="fill:#97cae4;"/><path d="M81.302,74.249c1.942,-4.012 4.535,-5.231 7.604,-5.705c3.066,-0.478 3.547,-2.447 6.168,-3.234c4.705,-1.41 4.029,2.419 0.733,3.93c-3.295,1.511 -5.123,-0.121 -8.379,2.149c-3.255,2.267 -8.13,7.003 -6.126,2.86" style="fill:#97cae4;"/><path d="M116.526,83.139c1.305,3.121 23.426,-2.756 24.057,-7.559c0.224,-1.697 -5.172,4.039 -13.2,3.084c-8.029,-0.955 -11.791,2.242 -10.857,4.475" style="fill:#97cae4;"/><path d="M98.044,33.684c-0,0 3.292,-1.89 8.124,-3.056c4.833,-1.166 8.589,-3.359 8.895,-5.337c0.303,-1.975 -2.313,0.129 -5.699,-2.16c-3.385,-2.289 -0.736,0.177 -4.223,2.694c-3.649,2.629 -4.793,0.255 -7.491,2.303c-2.089,1.59 -0.874,4.548 0.394,5.556" style="fill:#97cae4;"/></g></g><g><g opacity="0"><path d="M65.033,46.347c8.521,-4.095 6.321,-6.972 9.132,-11.267c4.674,-7.137 8.247,-13.07 23.25,-11.626c7.431,0.716 10.047,3.826 12.368,3.331c18.559,-3.966 22.995,4.343 24.337,9.073c0.538,1.896 2.704,5.096 6.205,6.155c10.831,3.269 11.233,10.303 14.033,11.935c4.447,2.596 5.107,5.7 6.282,8.896c2.378,6.464 -1.928,8.784 -0.83,12.152c5.529,16.994 -4.852,22.474 -6.992,25.25c-4.439,5.769 1.97,6.32 -5.079,14.778c-1.356,1.626 -4.959,5.12 -11.617,7.966c-3.904,1.668 -13.294,5.123 -18.288,5.564c-12.232,1.073 -9.684,-1.084 -18.647,-1.331c-3.091,-0.084 -4.464,1.786 -14.278,1.573c-3.542,-0.076 -7.029,-1.258 -11.601,-3.034c-7.363,-2.859 -7.024,-7.884 -11.08,-11.112c-4.699,-3.739 -7.508,-5.315 -6.463,-21.427c0.535,-8.253 -5.427,-7.112 -8.362,-14.076c-2.724,-6.455 -4.923,-21.598 12.586,-29.676c2.335,-1.079 2.907,-2.096 5.044,-3.124" style="fill:#efa074;stroke:#000;stroke-width:2.08px;"/></g><path d="M65.033,46.347c8.521,-4.095 6.321,-6.972 9.132,-11.267c4.674,-7.137 8.247,-13.07 23.25,-11.626c7.431,0.716 10.047,3.826 12.368,3.331c18.559,-3.966 22.995,4.343 24.337,9.073c0.538,1.896 2.704,5.096 6.205,6.155c10.831,3.269 11.233,10.303 14.033,11.935c4.447,2.596 5.107,5.7 6.282,8.896c2.378,6.464 -1.928,8.784 -0.83,12.152c5.529,16.994 -4.852,22.474 -6.992,25.25c-4.439,5.769 1.97,6.32 -5.079,14.778c-1.356,1.626 -4.959,5.12 -11.617,7.966c-3.904,1.668 -13.294,5.123 -18.288,5.564c-12.232,1.073 -9.684,-1.084 -18.647,-1.331c-3.091,-0.084 -4.464,1.786 -14.278,1.573c-3.542,-0.076 -7.029,-1.258 -11.601,-3.034c-7.363,-2.859 -7.024,-7.884 -11.08,-11.112c-4.699,-3.739 -7.508,-5.315 -6.463,-21.427c0.535,-8.253 -5.427,-7.112 -8.362,-14.076c-2.724,-6.455 -4.923,-21.598 12.586,-29.676c2.335,-1.079 2.907,-2.096 5.044,-3.124Z" style="fill:none;fill-rule:nonzero;stroke:#000;stroke-width:2.08px;stroke-linecap:round;stroke-miterlimit:10;"/></g></g><g><g><path d="M-1572.29,3301.47c0.57,-4.615 0.453,-9.28 0.32,-13.917c-0.168,-5.873 -0.507,-11.748 -1.284,-17.574c-0.546,-4.105 -0.311,-8.294 0.303,-12.376c0.233,-1.548 1.15,-2.875 1.563,-4.369c0.794,-2.874 0.84,-6.002 -0.034,-8.864c-0.205,-0.67 -0.281,-1.375 -0.537,-2.029c-0.093,-0.238 -0.218,-0.579 -0.496,-0.654c-0.476,-0.128 -0.964,0.286 -1.31,0.543c-0.738,0.55 -1.386,1.208 -2.037,1.855c-0.283,0.28 -0.549,0.746 -0.961,0.868c-1.223,0.364 -2.499,0.49 -3.739,0.777c-0.86,0.198 -1.686,0.519 -2.482,0.894c-1.881,0.887 -3.526,2.193 -5.118,3.511c-2.555,2.114 -4.934,4.432 -7.223,6.827c-8.109,8.486 -15.128,17.979 -21.216,28.003c-2.858,4.705 -4.75,9.928 -6.134,15.238c-1.39,5.331 -2.298,10.778 -2.952,16.245c-0.154,1.288 -0.278,2.603 -0.078,3.894c0.141,0.91 0.48,1.771 0.725,2.654c0.241,0.872 0.395,1.766 0.502,2.663c0.183,1.535 0.131,3.086 0.298,4.622c0.274,2.536 1.066,5.028 2.5,7.151c1.171,1.734 2.486,3.405 4.159,4.683c0.856,0.653 1.797,1.203 2.806,1.585c3.839,1.455 7.955,-0.056 11.113,-2.378c2.218,-1.631 4.275,-3.492 6.087,-5.566c2.467,-2.822 4.928,-5.667 7.018,-8.786c1.248,-1.865 2.156,-3.93 3.352,-5.827c0.76,-1.204 1.641,-2.381 2.832,-3.192c0.166,-0.113 0.343,-0.212 0.532,-0.282c0.929,-0.339 1.604,0.457 2.091,1.143c0.174,0.245 0.341,0.494 0.514,0.739c0.846,1.2 2.201,2.931 3.902,2.324c0.252,-0.09 0.487,-0.222 0.705,-0.376c0.868,-0.619 1.17,-1.751 1.504,-2.702c0.873,-2.48 0.927,-5.138 1.225,-7.724c0.372,-3.223 1.152,-6.383 1.55,-9.603Z" style="fill:#9f9f9f;"/><path d="M-1576.7,3244.13c0.723,-0.728 1.455,-1.448 2.232,-2.119c0.6,-0.518 1.526,-1.43 2.426,-1.188c0.336,0.091 0.537,0.434 0.668,0.73c0.31,0.701 0.328,1.493 0.653,2.189c0.996,2.133 1.113,4.631 0.676,6.919c-0.161,0.844 -0.471,1.648 -0.699,2.474c-0.227,0.824 -0.583,1.605 -0.918,2.389c-0.251,0.59 -0.515,1.189 -0.611,1.828c-0.601,3.994 -0.831,8.093 -0.295,12.109c0.783,5.867 1.123,11.784 1.291,17.697c0.133,4.67 0.25,9.368 -0.324,14.015c-0.397,3.216 -1.175,6.371 -1.546,9.59c-0.309,2.686 -0.389,5.446 -1.294,8.022c-0.246,0.697 -0.49,1.401 -0.853,2.048c-0.307,0.549 -0.698,1.067 -1.215,1.434c-0.916,0.653 -2.099,0.851 -3.101,0.284c-1.184,-0.669 -1.913,-1.887 -2.677,-2.964c-0.257,-0.362 -0.514,-0.762 -0.913,-0.982c-0.355,-0.195 -0.752,-0.089 -1.07,0.128c-1.303,0.887 -2.16,2.267 -2.934,3.605c-0.964,1.666 -1.793,3.413 -2.865,5.014c-2.131,3.182 -4.637,6.087 -7.152,8.966c-1.853,2.12 -4.002,3.971 -6.316,5.571c-1.722,1.19 -3.533,2.347 -5.538,2.997c-1.754,0.57 -3.724,0.473 -5.473,-0.059c-3.382,-1.028 -5.832,-3.77 -7.749,-6.609c-1.464,-2.167 -2.279,-4.708 -2.565,-7.298c-0.174,-1.567 -0.126,-3.15 -0.312,-4.716c-0.145,-1.219 -0.352,-2.456 -0.873,-3.578c-0.851,-1.832 -0.785,-3.853 -0.467,-5.807c1.796,-11.02 3.617,-22.46 9.511,-32.161c5.678,-9.345 12.18,-18.207 19.572,-26.271c4.283,-4.671 8.817,-9.375 14.532,-12.289c0.915,-0.466 1.819,-1.011 2.821,-1.273c1.114,-0.291 2.271,-0.374 3.378,-0.695Zm3.736,57.637c0.567,-4.582 0.449,-9.214 0.317,-13.819c-0.168,-5.832 -0.507,-11.666 -1.276,-17.452c-0.558,-4.192 -0.318,-8.472 0.31,-12.641c0.132,-0.877 0.467,-1.706 0.813,-2.517c0.281,-0.66 0.592,-1.312 0.784,-2.006c0.749,-2.711 0.775,-5.658 -0.049,-8.356c-0.185,-0.606 -0.263,-1.239 -0.468,-1.839c-0.06,-0.176 -0.098,-0.526 -0.32,-0.586c-0.221,-0.059 -0.448,0.147 -0.613,0.258c-0.429,0.287 -0.812,0.636 -1.188,0.989c-0.597,0.559 -1.139,1.176 -1.765,1.704c-0.15,0.126 -0.313,0.252 -0.503,0.308c-1.204,0.358 -2.46,0.479 -3.681,0.757c-0.847,0.193 -1.66,0.508 -2.444,0.878c-1.631,0.771 -3.073,1.883 -4.468,3.013c-2.112,1.709 -4.091,3.575 -6.005,5.501c-8.712,8.768 -16.136,18.76 -22.543,29.312c-2.696,4.441 -4.496,9.364 -5.828,14.367c-1.439,5.408 -2.364,10.939 -3.027,16.491c-0.205,1.719 -0.226,3.467 0.301,5.135c0.397,1.255 0.695,2.542 0.851,3.85c0.179,1.503 0.125,3.023 0.284,4.528c0.262,2.484 1.031,4.926 2.435,7.004c1.835,2.715 4.159,5.358 7.397,6.343c3.519,1.072 7.155,-0.353 9.994,-2.439c2.136,-1.57 4.118,-3.359 5.864,-5.355c2.418,-2.766 4.834,-5.551 6.883,-8.609c1.028,-1.535 1.815,-3.214 2.74,-4.811c1,-1.727 2.153,-3.465 3.829,-4.605c0.619,-0.422 1.427,-0.699 2.132,-0.311c0.486,0.268 0.817,0.737 1.131,1.179c0.708,0.998 1.365,2.147 2.465,2.77c0.644,0.364 1.389,0.355 1.998,-0.078c0.208,-0.148 0.328,-0.386 0.437,-0.61c0.204,-0.423 0.35,-0.87 0.505,-1.311c0.839,-2.384 0.868,-4.941 1.155,-7.426c0.373,-3.227 1.154,-6.392 1.553,-9.616Z"/></g></g><g><path d="M157.578,7.341c-0.764,-0.254 -1.178,-1.08 -0.924,-1.844c0.254,-0.763 1.08,-1.177 1.844,-0.923c0.745,0.247 1.488,0.507 2.229,0.78c0.737,0.27 1.471,0.553 2.204,0.848c19.316,7.779 33.658,22.667 41.226,40.44c7.568,17.773 8.361,38.43 0.583,57.746c-7.779,19.317 -22.668,33.658 -40.44,41.226c-17.773,7.568 -38.43,8.362 -57.747,0.583l-3.871,-1.684c-0.729,-0.342 -1.044,-1.211 -0.702,-1.94c0.341,-0.729 1.21,-1.043 1.939,-0.702l3.724,1.62c18.569,7.479 38.428,6.715 55.514,-0.56c17.086,-7.275 31.399,-21.063 38.877,-39.632c7.478,-18.57 6.715,-38.429 -0.561,-55.514c-7.275,-17.086 -21.062,-31.399 -39.632,-38.878l-4.263,-1.566Z"/><path d="M107.466,150.879c-0.301,0.747 -1.151,1.109 -1.898,0.808c-0.746,-0.301 -1.108,-1.151 -0.808,-1.897l59.108,-146.774c0.301,-0.747 1.151,-1.109 1.898,-0.808c0.746,0.301 1.108,1.151 0.807,1.898l-59.107,146.773Z"/></g><path d="M138.942,163.616l-3.542,-0l0,-14.461l3.542,0l0,14.461Z"/><rect x="86.991" y="159.748" width="100.303" height="4.167"/><g><path d="M90.709,42.319c9.388,-4.512 6.964,-7.681 10.061,-12.413c5.15,-7.863 9.086,-14.399 25.615,-12.809c8.187,0.79 11.069,4.215 13.626,3.671c20.447,-4.37 25.334,4.784 26.813,9.996c0.592,2.088 2.978,5.613 6.836,6.78c11.933,3.602 12.376,11.351 15.46,13.149c4.9,2.86 5.626,6.28 6.921,9.801c2.619,7.121 -2.124,9.677 -0.914,13.388c6.091,18.723 -5.346,24.761 -7.704,27.818c-4.89,6.357 2.171,6.963 -5.595,16.281c-1.494,1.792 -5.464,5.642 -12.799,8.777c-4.301,1.838 -14.646,5.645 -20.148,6.131c-13.476,1.182 -10.669,-1.195 -20.543,-1.467c-3.406,-0.093 -4.919,1.968 -15.732,1.733c-3.901,-0.084 -7.744,-1.387 -12.781,-3.343c-8.112,-3.15 -7.737,-8.686 -12.207,-12.242c-5.177,-4.119 -8.271,-5.855 -7.12,-23.607c0.59,-9.092 -5.979,-7.835 -9.213,-15.507c-3,-7.112 -5.423,-23.795 13.866,-32.696c2.573,-1.188 3.203,-2.308 5.558,-3.441" style="fill:#ca9b71;"/><g><clipPath id="_clip7"><path d="M100.77,29.906c-3.097,4.732 -0.673,7.901 -10.061,12.413c-2.355,1.133 -2.985,2.253 -5.558,3.441c-19.289,8.901 -16.866,25.584 -13.866,32.696c3.234,7.672 9.803,6.415 9.213,15.507c-1.151,17.752 1.943,19.488 7.12,23.607c4.47,3.556 4.095,9.092 12.207,12.242c5.037,1.956 8.88,3.259 12.781,3.343c5.577,0.123 8.68,-0.365 10.844,-0.858c2.031,-0.458 3.238,-0.919 4.888,-0.875c9.874,0.272 7.067,2.649 20.543,1.467c5.502,-0.486 15.847,-4.293 20.148,-6.131c7.335,-3.135 11.305,-6.985 12.799,-8.777c7.766,-9.318 0.705,-9.924 5.595,-16.281c2.358,-3.057 13.795,-9.095 7.704,-27.818c-1.21,-3.711 3.533,-6.267 0.914,-13.388c-1.295,-3.521 -2.021,-6.941 -6.921,-9.801c-3.084,-1.798 -3.527,-9.547 -15.46,-13.149c-3.858,-1.167 -6.244,-4.692 -6.836,-6.78c-1.479,-5.212 -6.366,-14.366 -26.813,-9.996c-2.557,0.544 -5.439,-2.881 -13.626,-3.671c-1.69,-0.161 -3.25,-0.238 -4.69,-0.238c-12.657,0 -16.303,5.988 -20.925,13.047Z" clip-rule="nonzero"/></clipPath><g clip-path="url(#_clip7)"><path d="M74.491,85.896c4.127,5.329 9.831,2.098 13.517,2.389c10.445,0.82 9.765,12.177 13.339,14.161c3.575,1.981 10.299,5.156 14.915,3.627c4.615,-1.529 9.503,-8.891 13.984,-10.318c8.168,-2.599 10.336,-0.343 16.321,-0.956c17.684,-1.81 13.464,-13.493 20.94,-16.786c11.973,-5.273 14.14,-22.504 6.711,-31.603c-5.72,-7.006 -0.405,-12.115 -0.405,-12.115c-0,-0 -0.59,-4.321 -3.574,-11.485c-2.985,-7.161 -10.791,-16.677 -29.47,-16.126c-18.675,0.551 -34.241,-8.368 -52.377,11.92c-18.136,20.292 -24.137,24.758 -24.314,41.615c-0.181,16.86 7.859,22.378 10.413,25.677" style="fill:#a6dcdf;"/><path d="M85.748,94.285c6.019,0.842 12.48,6.143 10.841,10.244c-0.915,2.296 -4.287,-1.814 -8.799,-1.009c-3.857,0.69 -4.815,0.161 -6.052,0.22c-5.035,0.241 -3.748,-3.606 -2.806,-5.982c2.31,-5.812 4.168,-3.844 6.816,-3.473" style="fill:#a6dcdf;"/><path d="M180.93,52.525c-1.949,5.295 0.696,12.481 4.164,11.507c10.41,-2.925 3.306,-5.918 1.238,-10.04c-2.068,-4.119 -4.444,-4.069 -5.402,-1.467" style="fill:#a6dcdf;"/><path d="M127.156,103.863c9.443,-7.563 18.803,-7.189 17.415,-0.489c-1.129,5.453 -1.584,6.391 -11.721,6.852c-6.546,0.297 -9.125,-3.611 -5.694,-6.363" style="fill:#a6dcdf;"/><path d="M151.938,109.499c-0.284,-1.578 1.812,-0.043 7.522,-2.693c7.114,-3.302 12.787,-11.676 10.401,-5.821c-4.962,12.178 -17.34,11.739 -17.923,8.514" style="fill:#a6dcdf;"/><path d="M179.985,81.396c-1.631,3.234 -2.629,10.531 -0.315,8.148c2.314,-2.38 4.36,-4.534 3.487,-7.046c-0.873,-2.513 -0.568,-6.264 -3.172,-1.102" style="fill:#a6dcdf;"/><path d="M163.477,92.264c-4.482,3.182 3.01,-8.983 5.343,-11.038c2.333,-2.058 5.598,-2.355 4.616,2.404c-0.983,4.763 -5.976,5.812 -9.959,8.634" style="fill:#a6dcdf;"/><path d="M168.162,116.545c0.545,-2.84 3.979,-3.416 6.936,-3.633c2.953,-0.216 5.617,1.142 3.555,3.25c-4.17,4.255 -11.726,6.83 -10.491,0.383" style="fill:#a6dcdf;"/><path d="M139.175,118.99c-6.689,4.528 1.925,9.383 6.484,7.158c4.56,-2.225 1.9,-5.904 4.379,-6.981c4.242,-1.842 8.471,-2.315 6.687,-3.457c-2.308,-1.476 -4.107,-0.653 -8.218,0.046c-4.182,0.715 -5.867,0.888 -9.332,3.234" style="fill:#a6dcdf;"/><path d="M142.99,43.832c2.117,-6.18 3.992,-10.19 10.417,-10.605c7.491,-0.483 -2.399,1.29 -5.455,5.332c-3.556,4.71 -5.851,7.873 -4.962,5.273" style="fill:#88c8cc;"/><path d="M92.646,39.673c0.63,3.243 10.202,1.281 15.769,10.176c1.977,3.156 3.359,4.861 1.397,-2.068c-1.999,-7.053 -5.246,-5.849 -9.959,-7.278c-4.709,-1.43 -7.584,-2.786 -7.207,-0.83" style="fill:#88c8cc;"/><path d="M108.633,73.059c2.139,-4.419 4.996,-5.763 8.377,-6.286c3.378,-0.526 3.908,-2.695 6.796,-3.562c5.183,-1.553 4.438,2.665 0.808,4.33c-3.631,1.665 -5.645,-0.133 -9.232,2.367c-3.587,2.498 -8.957,7.715 -6.749,3.151" style="fill:#88c8cc;"/><path d="M147.44,82.853c1.438,3.439 25.808,-3.035 26.504,-8.327c0.246,-1.87 -5.698,4.45 -14.543,3.398c-8.845,-1.053 -12.99,2.469 -11.961,4.929" style="fill:#a6dcdf;"/><path d="M127.078,28.368c-0,0 3.627,-2.082 8.951,-3.367c5.323,-1.284 9.462,-3.701 9.799,-5.88c0.334,-2.175 -2.548,0.143 -6.278,-2.38c-3.73,-2.522 -0.811,0.195 -4.654,2.968c-4.02,2.897 -5.28,0.282 -8.252,2.538c-2.302,1.752 -0.964,5.01 0.434,6.121" style="fill:#a2dbf3;"/></g></g><g><clipPath id="_clip8"><path d="M100.77,29.906c-3.097,4.732 -0.673,7.901 -10.061,12.413c-2.355,1.133 -2.985,2.253 -5.558,3.441c-19.289,8.901 -16.866,25.584 -13.866,32.696c3.234,7.672 9.803,6.415 9.213,15.507c-1.151,17.752 1.943,19.488 7.12,23.607c4.47,3.556 4.095,9.092 12.207,12.242c5.037,1.956 8.88,3.259 12.781,3.343c5.577,0.123 8.68,-0.365 10.844,-0.858c2.031,-0.458 3.238,-0.919 4.888,-0.875c9.874,0.272 7.067,2.649 20.543,1.467c5.502,-0.486 15.847,-4.293 20.148,-6.131c7.335,-3.135 11.305,-6.985 12.799,-8.777c7.766,-9.318 0.705,-9.924 5.595,-16.281c2.358,-3.057 13.795,-9.095 7.704,-27.818c-1.21,-3.711 3.533,-6.267 0.914,-13.388c-1.295,-3.521 -2.021,-6.941 -6.921,-9.801c-3.084,-1.798 -3.527,-9.547 -15.46,-13.149c-3.858,-1.167 -6.244,-4.692 -6.836,-6.78c-1.479,-5.212 -6.366,-14.366 -26.813,-9.996c-2.557,0.544 -5.439,-2.881 -13.626,-3.671c-1.69,-0.161 -3.25,-0.238 -4.69,-0.238c-12.657,0 -16.303,5.988 -20.925,13.047Z" clip-rule="nonzero"/></clipPath><g clip-path="url(#_clip8)"><path d="M74.491,85.896c4.127,5.329 9.831,2.098 13.517,2.389c10.445,0.82 9.765,12.177 13.339,14.161c3.575,1.981 10.299,5.156 14.915,3.627c4.615,-1.529 9.503,-8.891 13.984,-10.318c8.168,-2.599 10.336,-0.343 16.321,-0.956c17.684,-1.81 13.464,-13.493 20.94,-16.786c11.973,-5.273 14.14,-22.504 6.711,-31.603c-5.72,-7.006 -0.405,-12.115 -0.405,-12.115c-0,-0 -0.59,-4.321 -3.574,-11.485c-2.985,-7.161 -10.791,-16.677 -29.47,-16.126c-18.675,0.551 -34.241,-8.368 -52.377,11.92c-18.136,20.292 -24.137,24.758 -24.314,41.615c-0.181,16.86 7.859,22.378 10.413,25.677" style="fill:#ffba7b;"/><path d="M85.748,94.285c6.019,0.842 12.48,6.143 10.841,10.244c-0.915,2.296 -4.287,-1.814 -8.799,-1.009c-3.857,0.69 -4.815,0.161 -6.052,0.22c-5.035,0.241 -3.748,-3.606 -2.806,-5.982c2.31,-5.812 4.168,-3.844 6.816,-3.473" style="fill:#ffba7b;"/><path d="M180.93,52.525c-1.949,5.295 0.696,12.481 4.164,11.507c10.41,-2.925 3.306,-5.918 1.238,-10.04c-2.068,-4.119 -4.444,-4.069 -5.402,-1.467" style="fill:#ffba7b;"/><path d="M127.156,103.863c9.443,-7.563 18.803,-7.189 17.415,-0.489c-1.129,5.453 -1.584,6.391 -11.721,6.852c-6.546,0.297 -9.125,-3.611 -5.694,-6.363" style="fill:#ffba7b;"/><path d="M151.938,109.499c-0.284,-1.578 1.812,-0.043 7.522,-2.693c7.114,-3.302 12.787,-11.676 10.401,-5.821c-4.962,12.178 -17.34,11.739 -17.923,8.514" style="fill:#ffba7b;"/><path d="M179.985,81.396c-1.631,3.234 -2.629,10.531 -0.315,8.148c2.314,-2.38 4.36,-4.534 3.487,-7.046c-0.873,-2.513 -0.568,-6.264 -3.172,-1.102" style="fill:#ffba7b;"/><path d="M163.477,92.264c-4.482,3.182 3.01,-8.983 5.343,-11.038c2.333,-2.058 5.598,-2.355 4.616,2.404c-0.983,4.763 -5.976,5.812 -9.959,8.634" style="fill:#ffba7b;"/><path d="M168.162,116.545c0.545,-2.84 3.979,-3.416 6.936,-3.633c2.953,-0.216 5.617,1.142 3.555,3.25c-4.17,4.255 -11.726,6.83 -10.491,0.383" style="fill:#ffba7b;"/><path d="M139.175,118.99c-6.689,4.528 1.925,9.383 6.484,7.158c4.56,-2.225 1.9,-5.904 4.379,-6.981c4.242,-1.842 8.471,-2.315 6.687,-3.457c-2.308,-1.476 -4.107,-0.653 -8.218,0.046c-4.182,0.715 -5.867,0.888 -9.332,3.234" style="fill:#ffba7b;"/><path d="M142.99,43.832c2.117,-6.18 3.992,-10.19 10.417,-10.605c7.491,-0.483 -2.399,1.29 -5.455,5.332c-3.556,4.71 -5.851,7.873 -4.962,5.273" style="fill:#ffba7b;"/><path d="M92.646,39.673c0.63,3.243 10.202,1.281 15.769,10.176c1.977,3.156 3.359,4.861 1.397,-2.068c-1.999,-7.053 -5.246,-5.849 -9.959,-7.278c-4.709,-1.43 -7.584,-2.786 -7.207,-0.83" style="fill:#ffba7b;"/><path d="M108.633,73.059c2.139,-4.419 4.996,-5.763 8.377,-6.286c3.378,-0.526 3.908,-2.695 6.796,-3.562c5.183,-1.553 4.438,2.665 0.808,4.33c-3.631,1.665 -5.645,-0.133 -9.232,2.367c-3.587,2.498 -8.957,7.715 -6.749,3.151" style="fill:#ffba7b;"/><path d="M147.44,82.853c1.438,3.439 25.808,-3.035 26.504,-8.327c0.246,-1.87 -5.698,4.45 -14.543,3.398c-8.845,-1.053 -12.99,2.469 -11.961,4.929" style="fill:#ffba7b;"/><path d="M127.078,28.368c-0,0 3.627,-2.082 8.951,-3.367c5.323,-1.284 9.462,-3.701 9.799,-5.88c0.334,-2.175 -2.548,0.143 -6.278,-2.38c-3.73,-2.522 -0.811,0.195 -4.654,2.968c-4.02,2.897 -5.28,0.282 -8.252,2.538c-2.302,1.752 -0.964,5.01 0.434,6.121" style="fill:#ffba7b;"/></g></g><g><g opacity="0"><path d="M90.709,42.319c9.388,-4.512 6.964,-7.681 10.061,-12.413c5.15,-7.863 9.086,-14.399 25.615,-12.809c8.187,0.79 11.069,4.215 13.626,3.671c20.447,-4.37 25.334,4.784 26.813,9.996c0.592,2.088 2.978,5.613 6.836,6.78c11.933,3.602 12.376,11.351 15.46,13.149c4.9,2.86 5.626,6.28 6.921,9.801c2.619,7.121 -2.124,9.677 -0.914,13.388c6.091,18.723 -5.346,24.761 -7.704,27.818c-4.89,6.357 2.171,6.963 -5.595,16.281c-1.494,1.792 -5.464,5.642 -12.799,8.777c-4.301,1.838 -14.646,5.645 -20.148,6.131c-13.476,1.182 -10.669,-1.195 -20.543,-1.467c-3.406,-0.093 -4.919,1.968 -15.732,1.733c-3.901,-0.084 -7.744,-1.387 -12.781,-3.343c-8.112,-3.15 -7.737,-8.686 -12.207,-12.242c-5.177,-4.119 -8.271,-5.855 -7.12,-23.607c0.59,-9.092 -5.979,-7.835 -9.213,-15.507c-3,-7.112 -5.423,-23.795 13.866,-32.696c2.573,-1.188 3.203,-2.308 5.558,-3.441" style="fill:#efa074;stroke:#000;stroke-width:2.08px;"/></g><path d="M90.709,42.319c9.388,-4.512 6.964,-7.681 10.061,-12.413c5.15,-7.863 9.086,-14.399 25.615,-12.809c8.187,0.79 11.069,4.215 13.626,3.671c20.447,-4.37 25.334,4.784 26.813,9.996c0.592,2.088 2.978,5.613 6.836,6.78c11.933,3.602 12.376,11.351 15.46,13.149c4.9,2.86 5.626,6.28 6.921,9.801c2.619,7.121 -2.124,9.677 -0.914,13.388c6.091,18.723 -5.346,24.761 -7.704,27.818c-4.89,6.357 2.171,6.963 -5.595,16.281c-1.494,1.792 -5.464,5.642 -12.799,8.777c-4.301,1.838 -14.646,5.645 -20.148,6.131c-13.476,1.182 -10.669,-1.195 -20.543,-1.467c-3.406,-0.093 -4.919,1.968 -15.732,1.733c-3.901,-0.084 -7.744,-1.387 -12.781,-3.343c-8.112,-3.15 -7.737,-8.686 -12.207,-12.242c-5.177,-4.119 -8.271,-5.855 -7.12,-23.607c0.59,-9.092 -5.979,-7.835 -9.213,-15.507c-3,-7.112 -5.423,-23.795 13.866,-32.696c2.573,-1.188 3.203,-2.308 5.558,-3.441Z" style="fill:none;fill-rule:nonzero;stroke:#000;stroke-width:2.08px;stroke-linecap:round;stroke-miterlimit:10;"/></g></g></svg>
